<?xml version="1.0" encoding="UTF-8" standalone="no"?>
<!-- Created with Inkscape (http://www.inkscape.org/) -->
<svg id="svg3397" xmlns:rdf="http://www.w3.org/1999/02/22-rdf-syntax-ns#" xmlns="http://www.w3.org/2000/svg" height="256" width="256" version="1.1" xmlns:cc="http://creativecommons.org/ns#" xmlns:xlink="http://www.w3.org/1999/xlink" xmlns:dc="http://purl.org/dc/elements/1.1/">
 <metadata id="metadata59">
  <rdf:RDF>
   <cc:Work rdf:about="">
    <dc:format>image/svg+xml</dc:format>
    <dc:type rdf:resource="http://purl.org/dc/dcmitype/StillImage"/>
    <dc:title/>
   </cc:Work>
  </rdf:RDF>
 </metadata>
 <defs id="defs3399">
  <linearGradient id="linearGradient2834" y2="91.973" gradientUnits="userSpaceOnUse" x2="-164.72" gradientTransform="matrix(0.2929324,0,0,0.2900327,88.604961,11.361827)" y1="99.667" x1="-172.65">
   <stop id="stop3372" stop-color="#242424" stop-opacity="0.99215686" offset="0"/>
   <stop id="stop3374" stop-color="#656565" offset="1"/>
  </linearGradient>
  <linearGradient id="linearGradient2836" y2="29.484" gradientUnits="userSpaceOnUse" x2="31.364" gradientTransform="matrix(0.7525742,0,0,0.7451247,13.056486,15.866532)" y1="27.988" x1="32.893">
   <stop id="stop3378" stop-color="#575757" offset="0"/>
   <stop id="stop3380" stop-color="#333" offset="1"/>
  </linearGradient>
  <linearGradient id="linearGradient2831" y2="67.35" gradientUnits="userSpaceOnUse" x2="201.87" gradientTransform="matrix(0.2929324,0,0,0.2900327,-24.195615,14.164716)" y1="146.15" x1="277.57">
   <stop id="stop3384" stop-color="#FFF" offset="0"/>
   <stop id="stop3386" stop-color="#FFF" stop-opacity="0" offset="1"/>
  </linearGradient>
  <radialGradient id="radialGradient5828" gradientUnits="userSpaceOnUse" cy="21.818" cx="18.241" r="8.3085">
   <stop id="stop3408" stop-color="#a1a1a1" stop-opacity="0.20784314" offset="0"/>
   <stop id="stop3410" stop-color="#a1a1a1" stop-opacity="0.67843139" offset="1"/>
  </radialGradient>
  <radialGradient id="radialGradient2826" gradientUnits="userSpaceOnUse" cy="13.078" cx="15.414" gradientTransform="matrix(2.2852324,0,0,1.7582798,-11.39792,-1.3673982)" r="6.6562">
   <stop id="stop3390" stop-color="#FFF" offset="0"/>
   <stop id="stop3392" stop-color="#FFF" stop-opacity="0.24761905" offset="1"/>
  </radialGradient>
  <linearGradient id="linearGradient2821" y2="11.949" gradientUnits="userSpaceOnUse" x2="173.1" gradientTransform="matrix(0.3004586,0,0,0.2974845,-25.404767,14.268827)" y1="75.319" x1="173.1">
   <stop id="stop3396" stop-color="#343434" stop-opacity="0.97647059" offset="0"/>
   <stop id="stop3398" stop-color="#929292" offset="1"/>
  </linearGradient>
  <linearGradient id="linearGradient2823" y2="4.5363" gradientUnits="userSpaceOnUse" x2="41.485" gradientTransform="matrix(0.3004586,0,0,0.2974845,13.568071,16.507666)" y1="68.292" x1="41.542">
   <stop id="stop3402" stop-color="#333" offset="0"/>
   <stop id="stop3404" stop-color="#333" stop-opacity="0.6122449" offset="1"/>
  </linearGradient>
  <linearGradient id="linearGradient3288" y2="11.949" gradientUnits="userSpaceOnUse" y1="75.319" gradientTransform="matrix(0.2861419,0,0,0.2833094,-22.84742,14.708773)" x2="173.1" x1="173.1">
   <stop id="stop3366" stop-color="#979797" offset="0"/>
   <stop id="stop3368" stop-color="#000" stop-opacity="0.34117648" offset="1"/>
  </linearGradient>
  <radialGradient id="radialGradient3150" gradientUnits="userSpaceOnUse" cy="42.078" cx="24.307" gradientTransform="matrix(1.3905117,0,0,0.47403771,-9.798882,19.553432)" r="15.822">
   <stop id="stop4544" stop-color="#000" offset="0"/>
   <stop id="stop4546" stop-color="#000" stop-opacity="0" offset="1"/>
  </radialGradient>
  <radialGradient id="radialGradient3152" gradientUnits="userSpaceOnUse" cy="9.3275" cx="9.5927" gradientTransform="matrix(3.7089855,-0.00148556,6.788089e-4,1.6947832,-24.735826,-6.1770383)" r="21">
   <stop id="stop3680-9" stop-color="#fafafa" offset="0"/>
   <stop id="stop3682-3" stop-color="#c1c1c1" offset="1"/>
  </radialGradient>
  <linearGradient id="linearGradient3154" y2="34.835" gradientUnits="userSpaceOnUse" x2="13.622" gradientTransform="matrix(0.87804879,0,0,0.87804879,2.4268292,1.4268305)" y1="5.74" x1="13.872">
   <stop id="stop3688-7" stop-color="#aaa" offset="0"/>
   <stop id="stop3690-0" stop-color="#787878" offset="1"/>
  </linearGradient>
  <radialGradient id="radialGradient3156" gradientUnits="userSpaceOnUse" cy="18.593" cx="24.5" gradientTransform="matrix(2.94027,0,0,2.433326,-45.536589,-19.36654)" r="14.5">
   <stop id="stop2625" stop-color="#b9b9b9" offset="0"/>
   <stop id="stop2627" stop-color="#b9b9b9" stop-opacity="0" offset="1"/>
  </radialGradient>
  <linearGradient id="linearGradient3158" y2="12.246" gradientUnits="userSpaceOnUse" x2="29.182" gradientTransform="translate(2.000002,5.0000007)" y1="20.16" x1="24.613">
   <stop id="stop2635" stop-color="#204a87" offset="0"/>
   <stop id="stop2637" stop-color="#204a87" stop-opacity="0" offset="1"/>
  </linearGradient>
 </defs>
 <g id="g3055" transform="matrix(5.3409092,0,0,5.3409092,-5.9046039,-10.863637)">
  <path id="path3667" opacity="0.4" d="m46,39.5a22,7.5,0,0,1,-44,0,22,7.5,0,1,1,44,0z" fill-rule="evenodd" fill="url(#radialGradient3150)"/>
  <rect id="rect4414" stroke-linejoin="miter" style="enable-background:accumulate;" stroke-dasharray="none" fill-rule="nonzero" stroke-dashoffset="0" rx="1.1498" ry="1.0923" height="36" width="36" stroke="url(#linearGradient3154)" stroke-linecap="butt" stroke-miterlimit="1" y="4.5" x="5.5" stroke-width="1" fill="url(#radialGradient3152)"/>
  <path id="rect2281" fill-rule="evenodd" fill="url(#radialGradient3156)" d="m16.031,10,0,4-4.0312,0,0,1,4.0312,0,0,4-4.0312,0,0,1,4.0312,0,0,4-4.0312,0,0,1,4.0312,0,0,4-4.0312,0,0,1,4.0312,0,0,4,1,0,0-4,4,0,0,4,1,0,0-4,4,0,0,4,1,0,0-4,4,0,0,4,1,0,0-4,4,0,0-16-4,0,0-4-1,0,0,4-4,0,0-4-1,0,0,4-4,0,0-4-1,0,0,4-4,0,0-4-1,0zm1,5,4,0,0,4-4,0,0-4zm5,0,4,0,0,4-4,0,0-4zm5,0,4,0,0,4-4,0,0-4zm5,0,4,0,0,4-4,0,0-4zm-15,5,4,0,0,4-4,0,0-4zm5,0,4,0,0,4-4,0,0-4zm5,0,4,0,0,4-4,0,0-4zm5,0,4,0,0,4-4,0,0-4zm-15,5,4,0,0,4-4,0,0-4zm5,0,4,0,0,4-4,0,0-4zm5,0,4,0,0,4-4,0,0-4zm5,0,4,0,0,4-4,0,0-4z"/>
  <path id="rect2293" fill-rule="evenodd" fill="url(#linearGradient3158)" d="M30.531,17,25.648,25.817,17.038,21.02,11.031,30.5l0.875,0.5,5.4122-8.7268,8.7014,4.7812,5.387-9.554-0.875-0.5z"/>
  <rect id="rect2600" fill-rule="evenodd" transform="matrix(0,1,-1,0,0,0)" height="30" width="1" y="-41" x="34" fill="#888a85"/>
  <rect id="rect2231" fill-rule="evenodd" height="25" width="1" y="10" x="11.026" fill="#888a85"/>
 </g>
 <g id="g3177" transform="matrix(5.3408969,0,0,5.3409092,-5.9036372,-10.862035)">
  <path id="path11112" stroke-linejoin="round" d="M34.139,32.95,47.237,45.019,45.421,47.459,32.371,34.403,34.139,32.95z" fill-rule="evenodd" stroke="url(#linearGradient2836)" stroke-linecap="round" stroke-miterlimit="4" stroke-dasharray="none" stroke-width="0.93605131" fill="url(#linearGradient2834)"/>
  <path id="path11122" d="M45.443,46.667,34.939,33.698,47.648,44.741,45.443,46.667z" fill-rule="evenodd" fill="url(#linearGradient2831)"/>
  <path id="path13082" d="m247.91,110.29a4.8668,2.6562,0,1,1,-9.7337,0,4.8668,2.6562,0,1,1,9.7337,0z" transform="matrix(0.275472,-0.3088431,0.3530977,0.2301519,-59.38847,96.055097)" fill="#3e3e3e"/>
  <path id="path4340" d="m25.898,18.478a8.3085,8.3085,0,1,1,-16.617,0,8.3085,8.3085,0,1,1,16.617,0z" fill-rule="evenodd" transform="matrix(1.1079784,0,0,1.0703357,7.5804984,7.0727343)" fill="url(#radialGradient5828)"/>
  <path id="path4342" opacity="0.83422457" d="m26.69,19.195c-4.5896,0-8.3061,3.2923-8.3061,7.358,0,1.1742,0.10291,2.387,0.65537,3.3724,1.1037,0.36039,2.5438,0.47316,3.7882,0.47316,5.4386,0,10.116-3.9943,10.452-8.7376-1.5255-1.597-4.0448-2.466-6.5896-2.466z" fill-rule="evenodd" fill="url(#radialGradient2826)"/>
  <path id="path2298" stroke-linejoin="round" d="m26.867,17.97c-5.6536,0-10.244,4.1907-10.244,9.3522,0,5.1614,4.5902,9.3522,10.244,9.3522,5.6536,0,10.244-4.1907,10.244-9.3522,0-5.1614-4.5902-9.3522-10.244-9.3522zm0.12206,0.61356c5.06,0,9.1734,3.7472,9.1734,8.3668,0,4.6195-4.1134,8.3668-9.1734,8.3668-5.06,0.000001-9.164-3.7472-9.164-8.3668,0-4.6195,4.104-8.3668,9.164-8.3668z" stroke="url(#linearGradient2823)" stroke-linecap="round" stroke-miterlimit="4" stroke-dasharray="none" stroke-width="0.96010101" fill="url(#linearGradient2821)"/>
  <path id="path4267" d="m26.932,18.24c-5.3842,0-9.7461,3.9904-9.7461,8.9059s4.3619,8.9059,9.7461,8.9059,9.7555-3.9904,9.7555-8.9059-4.3713-8.9059-9.7555-8.9059zm0.05634,0.34397c5.06,0,8.7721,3.7472,8.7721,8.3668,0,4.6195-3.7121,7.9694-8.7721,7.9694-5.06,0.000001-8.8296-3.3499-8.8296-7.9694s3.7696-8.3668,8.8296-8.3668z" fill="url(#linearGradient3288)"/>
 </g>
</svg>
